#!OML:ASF X:\für Bonn\!DataBase\2005_08_11_Bastian_Final\c3d\Bastian.ASF
:FULLY-SPECIFIED
:DEGREES
2841
root -0.127267 17.4497 -1.12859 170.373 -1.47238 -176.426
lowerback 13.2246 0.770332 -0.0528975
upperback 12.9979 -1.44473 -1.76642
thorax 6.37121 -1.69331 -1.84842
lowerneck 10.361 -1.47418 -1.62332
upperneck 19.0249 0.450378 0.503231
head 4.55304 1.09156 0.531307
rclavicle 1.90833e-014 3.57812e-014
rhumerus -403.391 -1.501 279.213
rradius 78.2655
rwrist -128.381
rhand -15.5901 5.9974
rfingers 7.12502
rthumb 10.5955 -383.716
lclavicle 1.90833e-014 3.57812e-014
lhumerus -41.4631 44.1215 49.9321
lradius 25.2469
lwrist 174.03
lhand -25.2185 12.584
lfingers 7.12502
lthumb 1.30055 42.5598
rfemur 3.72025 -0.733521 19.007
rtibia 37.8384
rfoot -18.129 -4.20338
rtoes -10.4014
lfemur -2.8388 -1.29002 -10.8038
ltibia 26.9824
lfoot -9.94517 0.901064
ltoes -20.3002
2842
root -0.0923878 17.4422 -1.05482 170.293 -1.60648 -176.454
lowerback 13.2048 0.771145 0.125426
upperback 12.9863 -1.41793 -1.76385
thorax 6.36895 -1.66156 -1.94719
lowerneck 10.2737 -1.48284 -1.59206
upperneck 18.4925 0.286724 0.74971
head 4.36688 0.985139 0.599932
rclavicle 1.15295e-014 1.59028e-015
rhumerus -403.27 -1.40414 279.098
rradius 78.1357
rwrist -128.424
rhand -15.4906 6.07077
rfingers 7.12502
rthumb 10.6915 -383.637
lclavicle 1.15295e-014 1.59028e-015
lhumerus -42.6089 45.6664 48.1711
lradius 24.8009
lwrist 171.747
lhand -25.2672 12.6713
lfingers 7.12502
lthumb 1.25353 42.6474
rfemur 4.31984 -0.773776 19.1627
rtibia 37.1689
rfoot -18.5615 -4.10175
rtoes -9.86579
lfemur -3.1221 -1.30884 -10.7327
ltibia 27.0903
lfoot -9.92576 0.835037
ltoes -21.6121
2843
root -0.0558918 17.4362 -0.980979 170.2 -1.76218 -176.5
lowerback 13.2319 0.763201 0.249199
upperback 12.9581 -1.40589 -1.7487
thorax 6.32273 -1.64171 -1.99873
lowerneck 10.2125 -1.48494 -1.63522
upperneck 17.8878 0.118517 1.01215
head 4.15264 0.868059 0.685316
rclavicle -5.96354e-015 -3.02153e-014
rhumerus -403.153 -1.25964 278.992
rradius 78.0068
rwrist -128.471
rhand -15.4365 6.16241
rfingers 7.12502
rthumb 10.7438 -383.543
lclavicle -5.96354e-015 -3.02153e-014
lhumerus -43.9819 47.2837 46.1971
lradius 24.389
lwrist 169.38
lhand -25.3684 12.7102
lfingers 7.12502
lthumb 1.15574 42.6868
rfemur 4.86326 -0.78461 19.3266
rtibia 36.4406
rfoot -18.9584 -4.17179
rtoes -9.60768
lfemur -3.37652 -1.33672 -10.6755
ltibia 27.1572
lfoot -9.94413 0.737533
ltoes -23.0694
2844
root -0.0181043 17.4292 -0.906069 170.1 -1.90838 -176.547
lowerback 13.2638 0.777122 0.383615
upperback 12.9459 -1.36899 -1.73291
thorax 6.29303 -1.61065 -2.05834
lowerneck 10.1181 -1.49373 -1.66357
upperneck 17.19 -0.0728059 1.29059
head 3.91382 0.733831 0.771861
rclavicle 1.31198e-014 2.46493e-014
rhumerus -403.015 -1.17086 278.865
rradius 77.8527
rwrist -128.409
rhand -15.3297 6.24364
rfingers 7.12502
rthumb 10.8467 -383.456
lclavicle 1.31198e-014 2.46493e-014
lhumerus -45.3019 48.7917 44.2807
lradius 24.0309
lwrist 167.09
lhand -25.3951 12.6055
lfingers 7.12502
lthumb 1.13001 42.5823
rfemur 5.35117 -0.763921 19.5076
rtibia 35.6764
rfoot -19.3379 -4.34169
rtoes -9.30657
lfemur -3.60382 -1.32488 -10.6068
ltibia 27.1901
lfoot -9.94606 0.595333
ltoes -24.328
2845
root 0.0220673 17.4228 -0.830652 170 -2.07507 -176.587
lowerback 13.3266 0.786394 0.512142
upperback 12.9136 -1.33413 -1.71748
thorax 6.22423 -1.57962 -2.11298
lowerneck 10.0305 -1.51457 -1.7143
upperneck 16.4705 -0.276596 1.57497
head 3.67102 0.591201 0.863859
rclavicle 1.35174e-014 1.03368e-014
rhumerus -402.888 -1.06538 278.716
rradius 77.7176
rwrist -128.294
rhand -15.2851 6.33564
rfingers 7.12502
rthumb 10.8897 -383.362
lclavicle 1.35174e-014 1.03368e-014
lhumerus -46.8098 50.3189 42.1684
lradius 23.7206
lwrist 164.7
lhand -25.4297 12.4591
lfingers 7.12502
lthumb 1.09656 42.436
rfemur 5.77438 -0.715797 19.7208
rtibia 34.908
rfoot -19.729 -4.6301
rtoes -9.1672
lfemur -3.82925 -1.33811 -10.5285
ltibia 27.1879
lfoot -9.94204 0.478515
ltoes -25.6371
2846
root 0.0645744 17.4175 -0.755558 169.898 -2.2528 -176.626
lowerback 13.3932 0.802866 0.632874
upperback 12.888 -1.29215 -1.70428
thorax 6.16135 -1.54641 -2.16658
lowerneck 9.91585 -1.56192 -1.71715
upperneck 15.7135 -0.507011 1.80978
head 3.42386 0.433394 0.930815
rclavicle 1.59028e-015 1.03368e-014
rhumerus -402.753 -1.02147 278.569
rradius 77.562
rwrist -128.203
rhand -15.2646 6.39051
rfingers 7.12502
rthumb 10.9096 -383.306
lclavicle 1.59028e-015 1.03368e-014
lhumerus -48.5452 51.978 39.7682
lradius 23.4277
lwrist 162.124
lhand -25.4557 12.3054
lfingers 7.12502
lthumb 1.0714 42.2825
rfemur 6.13718 -0.644445 19.9592
rtibia 34.1591
rfoot -20.1191 -5.00072
rtoes -9.00676
lfemur -4.04364 -1.30962 -10.4309
ltibia 27.1615
lfoot -9.90485 0.29564
ltoes -26.4311
2847
root 0.109095 17.4118 -0.680386 169.779 -2.41842 -176.669
lowerback 13.4995 0.820989 0.689777
upperback 12.8583 -1.25595 -1.66538
thorax 6.07295 -1.5235 -2.15567
lowerneck 9.72321 -1.601 -1.76025
upperneck 14.9798 -0.72107 2.02845
head 3.20292 0.280034 1.0002
rclavicle 5.1684e-015 3.65764e-014
rhumerus -402.612 -0.896402 278.433
rradius 77.388
rwrist -128.124
rhand -15.2564 6.47295
rfingers 7.12502
rthumb 10.9174 -383.223
lclavicle 5.1684e-015 3.65764e-014
lhumerus -50.2788 53.435 37.4679
lradius 23.1805
lwrist 159.783
lhand -25.3968 12.039
lfingers 7.12502
lthumb 1.12832 42.0158
rfemur 6.46288 -0.483891 20.2322
rtibia 33.4609
rfoot -20.5246 -5.49222
rtoes -8.82025
lfemur -4.21944 -1.34118 -10.3369
ltibia 27.1126
lfoot -9.85912 0.15886
ltoes -27.2223
2848
root 0.154331 17.4071 -0.604784 169.682 -2.56811 -176.74
lowerback 13.5846 0.863853 0.718064
upperback 12.8457 -1.19329 -1.63327
thorax 6.01616 -1.49064 -2.13974
lowerneck 9.37257 0.381816 -1.44494
upperneck 14.2118 -1.52577 2.6149
head 3.00528 -1.41651 1.06325
rclavicle -1.43125e-014 -2.3059e-014
rhumerus -402.428 -0.775526 278.293
rradius 77.1896
rwrist -128.05
rhand -15.2981 6.58636
rfingers 7.12502
rthumb 10.8772 -383.112
lclavicle -1.43125e-014 -2.3059e-014
lhumerus -52.458 55.1685 34.6456
lradius 22.9655
lwrist 157.048
lhand -25.3733 11.9045
lfingers 7.12502
lthumb 1.15105 41.8811
rfemur 6.70154 -0.308278 20.4736
rtibia 32.8433
rfoot -20.9192 -6.00682
rtoes -8.67141
lfemur -4.40304 -1.36904 -10.2737
ltibia 27.0401
lfoot -9.7578 0.0468289
ltoes -27.694
